<?xml version="1.0" encoding="UTF-8"?>
<svg id="Camada_1" data-name="Camada 1" xmlns="http://www.w3.org/2000/svg" viewBox="0 0 74.89 66.9">
  <defs>
    <style>
      .cls-1 {
        font-family: Poppins-Regular, Poppins;
        font-size: 15.05px;
      }

      .cls-1, .cls-2, .cls-3 {
        fill: #575756;
      }

      .cls-4 {
        fill: #336fb6;
      }

      .cls-2 {
        fill-rule: evenodd;
      }
    </style>
  </defs>
  <path class="cls-3" d="M66.96,44.3c-5.68,0-11.24,0-16.8.01-.53,0-.62-.34-.77-.67-2.3-4.95-4.58-9.9-6.88-14.86-1.89-4.08-3.8-8.14-5.65-12.24-.3-.67-.68-.84-1.37-.84-4.18.03-8.37,0-12.55.03-.75,0-.89-.12-.55-.85,2.21-4.7,4.4-9.41,6.55-14.14.25-.56.55-.7,1.12-.7,2.66,0,5.32-.04,7.99-.05,1.68,0,3.32.24,4.93.7,2.96.86,5.04,2.7,6.34,5.5,3.24,6.99,6.54,13.95,9.75,20.95,2.44,5.33,5.15,10.54,7.43,15.95.15.35.28.7.48,1.2Z"/>
  <path class="cls-4" d="M8.92,44.2c.77-1.67,1.53-3.3,2.29-4.94,1.58-3.42,3.16-6.84,4.75-10.25.92-1.97,1.99-3.82,3.69-5.27,1.62-1.39,3.52-1.91,5.56-2.06,2.42-.18,4.85-.02,7.28-.05.36,0,.51.15.65.44,2.19,4.75,4.39,9.49,6.57,14.24.39.84.32.9-.65.89-2.54-.03-5.09-.04-7.63-.11-1.49-.04-2.48.48-3.02,1.96-.58,1.59-1.36,3.1-2.03,4.66-.16.38-.32.61-.81.61-5.44-.03-10.88-.03-16.32-.04-.08,0-.16-.03-.33-.08Z"/>
  <path class="cls-2" d="M12.15,51.27c0-.24-.13-.69-.13-.91h-1.77c-.06,0-.08.02-.08.08v7.77c0,.09.06.08.15.08h1.83c.1-.45-.05-4.3.06-4.79.17-.73.73-1.42,1.53-1.42.73,0,1.2.3,1.48.94.14.31.21.8.21,1.17v4.09h1.95v-4.07c0-.39.07-.87.23-1.17.72-1.36,2.7-1.32,2.92.53.06.48.04,3.62.03,4.53,0,.1-.02.18.08.18h1.83c.06,0,.08-.02.08-.08v-4.01c0-.94-.15-2.14-.77-2.86-.07-.09-.12-.16-.21-.23-.02-.02-.03-.03-.06-.05l-.76-.49c-.22-.09-.45-.18-.7-.22-.87-.14-1.76-.13-2.51.33-.18.11-.42.28-.56.43l-.45.57c-.19-.36-.25-.5-.54-.79-.1-.1-.14-.12-.26-.21-.85-.64-2.6-.65-3.44.38l-.16.23ZM12.15,51.27"/>
  <path class="cls-2" d="M38.2,56.61c-.37,0-.7-.04-1.04-.19-.5-.22-.83-.59-1.07-1.07-.31-.61-.27-1.44-.02-2.07.28-.71,1.12-1.26,1.89-1.26.55,0,1.04.1,1.47.41.33.24.58.53.74.91.48,1.14.09,2.51-1.06,3.05-.2.09-.62.22-.9.22h0ZM40.49,51.37c-.08-.06-.06-.11-.2-.24-.56-.56-1.49-.96-2.28-.96-.48,0-.67,0-1.14.11-.45.1-.33.06-.76.23-.49.19-.75.41-1.09.73l-.06.05c-.52.54-.87,1.24-.98,1.99-.2,1.32-.11,2.29.57,3.44.06.1.08.13.15.21.52.65,1.18,1.13,2,1.33,1,.25,2.15.27,3.03-.31.25-.17.15-.12.31-.24.21-.17.39-.45.45-.49.01.17.05.39.08.55.01.12.02.17.03.28.01.09,0,.21.1.21h1.7c.06,0,.08-.02.08-.08v-11.13h-1.98v4.3ZM40.49,51.37"/>
  <path class="cls-2" d="M28.37,56.69c-.51,0-1.21-.21-1.52-.51-.06-.06-.11-.1-.16-.15-.64-.69-.83-1.85-.46-2.71.07-.17.1-.24.2-.38.74-1.11,2.25-1.29,3.28-.61.35.23.61.61.77,1,.23.56.23,1.4,0,1.94-.1.25-.26.54-.45.73-.27.27-.38.33-.69.48-.27.12-.59.2-.97.2h0ZM24.07,54.27c0,.9.17,1.74.62,2.51.24.41.71.9,1.13,1.14.08.04.16.09.23.13.09.05.17.08.27.12.97.47,2.63.5,3.62-.22.05-.03.06-.03.11-.07.34-.24.41-.43.64-.69l.08.86c0,.12-.03.23.08.23h1.72c.06,0,.08-.02.08-.08v-7.85h-1.82c-.14,0-.06.17-.1.48l-.03.57s-.03-.04-.05-.06c-.3-.38-.52-.64-1.03-.85-.07-.03-.1-.05-.16-.08-.46-.21-1.02-.24-1.53-.24-.54,0-1.15.17-1.62.36-.43.17-.88.5-1.18.8l-.43.56c-.04.06-.05.09-.09.15-.03.06-.06.09-.09.17-.31.62-.45,1.35-.45,2.05h0ZM24.07,54.27"/>
  <path class="cls-2" d="M4.25,51.95c.64,0,1.08.14,1.52.52.29.24.46.49.62.87.24.61.25,1.35,0,1.95-.12.29-.25.5-.44.73-.14.17-.47.37-.67.47-.56.27-1.39.26-1.96,0-.55-.25-.93-.59-1.17-1.18-.39-.97-.18-2.35.74-2.96.42-.27.79-.42,1.36-.42h0ZM0,54.19c0,.76.07,1.5.38,2.13.05.09.06.16.11.25.42.74.94,1.27,1.78,1.61.09.04.15.07.26.1.09.03.18.05.28.08.2.06.42.09.64.12.82.11,1.75-.08,2.42-.53.19-.12.46-.36.58-.54.06-.09.09-.17.17-.22,0,.2.02.4.04.59.04.25-.01.51.12.51h1.77v-7.93h-1.88c0,.13-.05.96-.08,1.02-.15-.11-.44-.76-1.59-1.07-.76-.21-1.64-.15-2.38.08-.58.18-1.12.51-1.54.94-.48.48-.7.93-.9,1.58-.04.13-.08.25-.11.39-.05.26-.08.6-.08.91h0ZM0,54.19"/>
  <path class="cls-2" d="M47.89,56.64c-.33,0-.62-.07-.87-.17-.23-.09-.48-.25-.65-.42l-.23-.29c-.39-.66-.39-.92-.39-1.69,0-.47.31-1.13.63-1.45.15-.16.41-.35.62-.42.6-.21,1.13-.28,1.75.03.36.18.3.18.5.34.19.15.47.58.57.84.35.92.2,1.82-.39,2.58-.32.41-.99.68-1.54.68h0ZM43.78,54.08c0,.64.01,1.14.24,1.74.14.39.26.64.5.99.13.19.31.38.47.54.34.35.77.6,1.22.78.98.39,1.97.38,2.98.13.36-.09,1.04-.44,1.32-.69.34-.3.56-.47.83-.92.03-.05.07-.11.1-.16.92-1.59.7-3.82-.66-5.18-1.32-1.33-3.73-1.48-5.27-.46-.2.13-.39.27-.55.44-.18.18-.3.32-.46.54-.42.58-.74,1.53-.74,2.23h0ZM43.78,54.08"/>
  <text class="cls-1" transform="translate(52.07 58.29) scale(.95 1)"><tspan x="0" y="0">tec</tspan></text>
</svg>